<?xml version="1.0" encoding="utf-8"?>
<svg height="32px" id="Layer_1" style="enable-background:new 0 0 67 67;" version="1.1" viewBox="0 0 32 32" width="32px" xmlns="http://www.w3.org/2000/svg">
  <path d="M 18.222 9.751 C 16.826 10.259 15.943 11.57 16.043 13.005 L 16.077 13.558 L 15.518 13.491 C 13.484 13.231 11.707 12.35 10.198 10.869 L 9.461 10.135 L 9.271 10.677 C 8.869 11.886 9.126 13.163 9.964 14.022 C 10.411 14.497 10.31 14.564 9.539 14.282 C 9.271 14.191 9.036 14.124 9.014 14.157 C 8.936 14.237 9.204 15.265 9.416 15.671 C 9.707 16.237 10.299 16.79 10.947 17.118 L 11.495 17.378 L 10.847 17.389 C 10.221 17.389 10.199 17.4 10.266 17.638 C 10.49 18.372 11.372 19.152 12.356 19.491 L 13.049 19.728 L 12.445 20.09 C 11.551 20.61 10.501 20.903 9.45 20.925 C 8.947 20.937 8.533 20.982 8.533 21.016 C 8.533 21.129 9.897 21.761 10.69 22.01 C 13.07 22.745 15.898 22.428 18.021 21.174 C 19.53 20.281 21.038 18.507 21.743 16.789 C 22.123 15.875 22.503 14.202 22.503 13.401 C 22.503 12.881 22.537 12.813 23.162 12.191 C 23.531 11.83 23.877 11.435 23.945 11.322 C 24.057 11.107 24.045 11.107 23.475 11.299 C 22.525 11.638 22.391 11.593 22.861 11.084 C 23.207 10.723 23.621 10.067 23.621 9.875 C 23.621 9.842 23.453 9.898 23.263 9.999 C 23.062 10.113 22.615 10.282 22.279 10.383 L 21.676 10.576 L 21.129 10.203 C 20.827 9.999 20.403 9.773 20.179 9.706 C 19.609 9.548 18.737 9.57 18.222 9.751 Z M 16 32 C 7.164 32 0 24.836 0 16 C 0 7.163 7.164 0 16 0 C 24.836 0 32 7.163 32 16 C 32 24.836 24.836 32 16 32 Z" style="fill-rule:evenodd;clip-rule:evenodd;fill:#598DCA;"/>
</svg>