<?xml version="1.0" encoding="utf-8"?>
<svg enable-background="new 0 0 50 50" id="Layer_1" version="1.1" viewBox="0 0 32 32" width="32px" height="32px" xmlns="http://www.w3.org/2000/svg">
  <g transform="matrix(0.666667, 0, 0, 0.666667, -0.666675, -0.666675)">
    <path d="M 45 1 L 5.001 1 C 2.8 1 1 2.8 1 5.001 L 1 45 C 1 47.2 2.8 49 5.001 49 L 45 49 C 47.2 49 49 47.2 49 45 L 49 5.001 C 49 2.8 47.2 1 45 1 Z" fill="#54769B"/>
    <path d="M 26 34 C 27 34 27 32.6 27 32 C 27 31 28 30 29 30 C 30 30 31.7 31.7 33 33 C 34 34 34 34 35 34 C 36 34 38 34 38 34 C 38 34 40 33.9 40 32 C 40 31.4 39.3 30.3 37 28 C 35 26 34 27 37 23 C 38.8 20.5 40.2 18.3 40 17.7 C 39.8 17.1 34.7 16.1 34 17 C 32 20 31.6 20.7 31 22 C 30 24 29.9 25 29 25 C 28.1 25 28 23.1 28 22 C 28 18.7 28.5 16.4 27 16 C 27 16 25 16 24 16 C 22.4 16 21 17 21 17 C 21 17 19.8 18 20 18 C 20.3 18 22 17.6 22 19 C 22 20 22 21 22 21 C 22 21 22 25 21 25 C 20 25 18 21 16 18 C 15.2 16.8 15 17 14 17 C 12.9 17 12 17 11 17 C 10 17 9.9 17.6 10 18 C 12 23 13.4 26.1 17.2 30.1 C 20.7 33.7 23 33.9 25 34 C 25.5 34 25 34 26 34 Z" fill="#FFFFFF" id="VK_1_"/>
  </g>
</svg>