<?xml version="1.0" standalone="no"?>
<!DOCTYPE svg PUBLIC "-//W3C//DTD SVG 20010904//EN"
 "http://www.w3.org/TR/2001/REC-SVG-20010904/DTD/svg10.dtd">
<svg version="1.0" xmlns="http://www.w3.org/2000/svg"
 width="2560.000000pt" height="2560.000000pt" viewBox="0 0 2560.000000 2560.000000"
 preserveAspectRatio="xMidYMid meet">
<metadata>
Created by potrace 1.11, written by Peter Selinger 2001-2013
</metadata>
<g transform="translate(0.000000,2560.000000) scale(0.100000,-0.100000)"
fill="#000000" stroke="none">
<path d="M11155 16381 c-16 -10 -175 -165 -351 -343 -315 -316 -322 -324 -319
-360 2 -35 23 -59 296 -332 161 -162 295 -299 296 -303 2 -5 -125 -137 -282
-293 -156 -157 -285 -289 -285 -293 0 -9 98 -107 107 -107 3 0 134 128 291
285 157 157 288 285 291 285 4 0 135 -128 292 -285 156 -156 287 -285 291
-285 9 0 108 98 108 108 0 4 -128 135 -285 292 -157 157 -285 288 -285 291 0
3 135 141 299 306 299 299 300 299 296 338 -3 35 -27 62 -337 371 -358 359
-364 363 -423 325z m310 -440 c140 -140 255 -257 255 -261 0 -7 -505 -513
-517 -517 -4 -2 -125 114 -268 257 l-260 260 45 46 c199 203 475 474 482 472
5 -2 123 -118 263 -257z"/>
<path d="M13070 16380 c-11 -11 -21 -23 -21 -27 -7 -39 -9 -74 -11 -176 -2
-64 -1 -117 2 -117 3 0 4 -19 2 -42 -1 -24 -2 -83 -1 -133 0 -49 0 -97 0 -105
-1 -8 -1 -33 0 -55 0 -22 0 -47 0 -55 0 -8 0 -55 0 -105 0 -49 0 -97 0 -105
-1 -8 -1 -33 0 -55 0 -22 0 -47 0 -55 0 -8 0 -55 0 -105 0 -49 0 -97 0 -105
-1 -8 -1 -33 0 -55 0 -22 0 -44 0 -50 -4 -87 -5 -255 -1 -255 3 0 4 -19 2 -42
-2 -38 -4 -240 -2 -310 0 -18 5 -27 18 -27 83 -3 126 -1 133 6 5 5 9 29 9 53
0 25 0 54 0 65 0 11 0 54 0 95 -1 41 -1 82 -1 90 0 8 0 44 0 80 -1 231 -6 209
61 260 25 19 47 37 50 40 3 3 126 102 275 220 148 118 278 222 289 230 10 8
26 22 35 31 9 9 27 22 39 28 28 15 64 89 51 105 -28 36 -61 67 -119 111 -36
27 -70 54 -76 60 -6 5 -28 24 -49 40 -74 58 -100 80 -103 88 -2 4 -10 7 -18 7
-8 0 -14 4 -14 8 0 5 -19 23 -42 40 -24 17 -56 42 -73 56 -16 14 -35 29 -40
33 -42 32 -162 130 -173 140 -7 7 -26 20 -42 30 -17 9 -30 21 -30 25 0 12 -85
58 -108 58 -12 0 -31 -9 -42 -20z m204 -285 c45 -35 113 -90 141 -113 19 -16
107 -86 130 -105 169 -133 242 -196 237 -203 -4 -5 -27 -25 -52 -44 -25 -19
-46 -38 -48 -42 -2 -5 -8 -8 -13 -8 -6 0 -21 -10 -34 -22 -13 -13 -30 -28 -37
-33 -7 -6 -35 -28 -63 -50 -27 -22 -54 -43 -60 -48 -5 -4 -21 -17 -35 -28 -14
-12 -41 -33 -60 -48 -19 -14 -37 -28 -40 -31 -16 -18 -123 -100 -130 -100 -13
0 -17 23 -10 50 4 14 3 37 -1 51 -4 15 -3 32 1 39 4 6 4 27 0 46 -4 19 -4 34
0 34 5 0 5 12 1 28 -4 15 -4 39 0 54 4 16 3 30 -2 34 -5 3 -7 9 -4 14 5 8 7
86 4 190 0 25 0 50 1 55 1 6 1 44 0 85 0 41 -1 82 -1 90 1 8 1 50 1 92 1 74 2
76 19 60 9 -9 34 -30 55 -47z"/>
<path d="M16264 16375 c-15 -14 -24 -25 -21 -25 3 0 2 -13 -3 -30 -5 -16 -6
-30 -2 -30 9 0 8 -58 -1 -66 -3 -4 -2 -15 4 -25 5 -11 6 -19 1 -19 -8 0 -9
-23 -2 -55 1 -5 1 -14 0 -20 -5 -24 -2 -134 4 -143 3 -6 3 -13 -2 -16 -8 -5
-6 -95 3 -104 2 -2 0 -13 -6 -23 -7 -13 -6 -19 1 -19 6 0 8 -5 5 -11 -10 -15
-12 -79 -3 -79 3 0 3 -13 -2 -30 -5 -16 -6 -30 -2 -30 9 0 8 -58 -1 -66 -3 -4
-2 -15 4 -25 5 -11 6 -19 1 -19 -8 0 -9 -23 -2 -55 1 -5 1 -14 0 -20 -5 -24
-2 -134 4 -143 3 -6 3 -13 -2 -16 -8 -5 -6 -95 3 -104 2 -2 0 -13 -6 -23 -7
-13 -6 -19 1 -19 6 0 8 -5 5 -11 -10 -15 -12 -79 -3 -79 3 0 3 -13 -2 -30 -5
-16 -6 -30 -2 -30 9 0 8 -58 -1 -66 -3 -4 -2 -15 4 -25 5 -11 6 -19 1 -19 -8
0 -9 -23 -2 -55 1 -5 1 -14 0 -20 -5 -24 -2 -134 4 -143 3 -6 3 -13 -2 -16 -8
-5 -6 -95 3 -104 2 -2 0 -13 -6 -23 -7 -13 -6 -19 1 -19 6 0 8 -5 5 -11 -10
-15 -12 -79 -3 -79 4 0 5 -7 2 -15 -6 -15 5 -19 41 -15 47 6 71 5 95 -3 13 -4
21 -5 18 -1 -4 4 -3 15 3 25 7 13 6 19 -1 19 -6 0 -8 5 -5 11 10 15 12 79 3
79 -3 0 -3 14 2 30 5 17 6 30 2 30 -9 0 -8 58 1 66 3 4 2 15 -4 25 -7 14 -6
19 3 19 9 0 9 3 0 12 -7 7 -8 17 -1 30 7 12 6 18 -1 18 -6 0 -8 5 -5 11 10 15
12 79 3 79 -3 0 -3 14 2 30 5 17 6 30 2 30 -9 0 -8 53 2 68 3 6 2 14 -4 17 -8
5 -8 11 0 20 8 9 8 15 0 20 -7 4 -7 12 0 26 8 13 7 19 0 19 -6 0 -8 5 -5 11
10 15 12 79 3 79 -3 0 -3 14 2 30 5 17 6 30 2 30 -9 0 -8 58 1 66 3 4 2 15 -4
25 -7 14 -6 19 3 19 9 0 9 3 0 12 -7 7 -8 17 -1 30 7 12 6 18 -1 18 -6 0 -8 5
-5 11 10 16 12 69 4 75 -5 3 -6 11 -3 19 4 10 81 -43 261 -178 243 -182 256
-190 270 -172 7 11 23 30 33 43 11 12 20 26 20 31 0 5 7 14 15 21 13 11 11 15
-13 33 -42 33 -52 41 -67 55 -7 6 -18 12 -24 12 -6 0 -11 4 -11 8 0 4 -12 15
-27 24 -16 9 -37 25 -48 35 -11 10 -38 30 -61 46 -22 15 -50 36 -62 47 -12 11
-25 20 -31 20 -5 0 -11 3 -13 8 -1 4 -30 27 -63 52 -33 24 -64 48 -70 52 -51
41 -89 68 -97 68 -5 0 -6 5 -3 10 3 6 2 10 -4 10 -7 0 -7 8 -2 23 5 13 5 30 1
37 -5 8 -6 19 -3 24 8 13 10 56 3 56 -7 0 -5 59 3 66 3 4 2 15 -4 25 -7 14 -6
19 3 19 9 0 9 3 0 12 -7 7 -8 17 -1 30 7 12 6 18 -1 18 -6 0 -8 5 -5 11 10 15
12 78 3 81 -4 2 -4 8 0 14 4 7 101 -60 261 -179 241 -182 254 -190 268 -172 7
11 23 30 33 43 11 12 20 26 20 31 0 5 7 14 15 21 13 11 11 15 -13 33 -42 33
-52 41 -67 55 -7 6 -18 12 -24 12 -6 0 -11 4 -11 8 0 4 -12 15 -27 24 -16 9
-37 25 -48 35 -11 10 -38 30 -61 46 -22 15 -50 36 -62 47 -12 11 -25 20 -31
20 -5 0 -11 3 -13 8 -1 4 -30 27 -63 51 -33 25 -62 47 -65 50 -3 4 -22 17 -42
31 -21 14 -38 28 -38 33 0 4 -7 7 -15 7 -8 0 -15 4 -15 9 0 12 -63 41 -88 41
-12 0 -33 -11 -48 -25z"/>
<path d="M9363 16292 c-106 -54 -193 -96 -193 -93 0 2 -9 -4 -21 -15 -12 -10
-24 -19 -28 -18 -14 2 -41 -9 -41 -16 0 -5 -8 -10 -17 -12 -41 -7 -483 -240
-494 -260 -13 -23 -5 -73 14 -92 7 -7 196 -105 420 -217 224 -112 407 -206
407 -209 0 -3 -55 -33 -122 -65 -68 -33 -124 -63 -126 -67 -2 -5 -12 -8 -23
-8 -10 0 -19 -4 -19 -8 0 -5 -18 -15 -40 -22 -22 -7 -40 -17 -40 -22 0 -4 -9
-8 -20 -8 -11 0 -20 -4 -20 -10 0 -5 -9 -10 -20 -10 -11 0 -20 -5 -20 -12 0
-6 -2 -9 -6 -6 -3 3 -24 -5 -47 -17 -66 -36 -281 -142 -290 -143 -5 0 -20 -13
-34 -28 -20 -22 -24 -34 -20 -61 3 -18 12 -39 20 -47 14 -14 978 -499 982
-494 7 8 65 129 65 135 0 5 -180 98 -400 208 -220 110 -400 202 -400 205 0 6
228 122 232 119 2 -2 22 10 46 24 23 15 42 24 42 20 0 -5 4 -3 8 2 6 8 143 79
192 99 8 3 66 32 127 65 62 32 115 56 118 53 3 -3 5 0 5 6 0 7 7 12 14 12 21
0 60 41 64 66 7 50 -14 70 -130 130 -62 32 -133 67 -158 78 -25 11 -47 22 -50
26 -3 3 -119 61 -258 130 -138 69 -251 128 -249 133 1 5 5 7 9 5 3 -2 14 4 24
13 11 9 30 20 44 24 14 4 27 11 30 14 6 8 163 85 170 83 3 0 13 7 23 15 9 9
17 12 17 7 0 -5 4 -4 8 1 7 11 50 32 66 33 5 0 12 4 15 9 7 10 172 92 185 91
5 0 12 4 15 9 3 4 48 28 99 53 50 24 92 48 92 52 0 12 -64 138 -70 138 -3 -1
-92 -45 -197 -98z"/>
<path d="M14990 16321 c0 -5 -7 -8 -15 -7 -14 1 -16 -35 -18 -296 -1 -164 2
-298 6 -298 5 0 5 -5 1 -11 -8 -13 -7 -246 1 -260 4 -5 3 -9 -2 -9 -4 0 -8
-81 -8 -180 0 -99 4 -180 8 -180 5 0 5 -5 1 -11 -8 -13 -7 -246 1 -260 4 -5 3
-9 -2 -9 -7 0 -8 -185 -2 -347 2 -52 9 -61 44 -53 38 8 45 8 45 0 0 -5 7 -7
16 -3 9 3 25 6 35 7 20 1 20 12 20 886 0 487 -1 918 -1 959 0 41 -3 71 -7 68
-3 -4 -12 -2 -19 4 -8 7 -14 7 -19 -1 -5 -8 -11 -8 -21 1 -10 8 -14 8 -14 0 0
-7 -8 -8 -25 -1 -14 5 -25 6 -25 1z"/>
<path d="M1356 13961 c-4 -5 -20 -12 -36 -16 -17 -4 -30 -11 -30 -17 0 -6 -2
-9 -5 -7 -2 3 -55 -20 -117 -52 -131 -66 -381 -192 -388 -195 -3 -1 -15 -5
-27 -9 -13 -4 -23 -11 -23 -16 0 -5 -3 -8 -7 -7 -5 1 -28 -9 -53 -22 -25 -13
-47 -25 -50 -25 -7 -2 -180 -88 -210 -105 -14 -8 -27 -15 -30 -15 -6 -2 -264
-132 -307 -155 -32 -17 -41 -51 -19 -70 9 -7 33 -11 56 -8 22 2 40 1 40 -2 0
-3 30 -6 67 -6 74 -1 384 -12 528 -20 50 -2 135 -7 190 -9 55 -3 138 -7 185
-10 47 -3 126 -7 175 -9 50 -3 90 -5 90 -6 0 -1 32 -3 70 -5 39 -2 106 -6 150
-9 44 -3 112 -8 150 -11 39 -2 93 -7 120 -10 28 -2 91 -7 140 -11 50 -3 110
-7 135 -10 59 -6 140 -13 215 -18 33 -3 85 -7 115 -11 30 -3 75 -7 100 -9 25
-3 72 -8 105 -11 33 -4 78 -8 100 -10 22 -2 40 -4 40 -5 0 -1 26 -2 57 -3 32
-1 58 -4 58 -7 0 -3 19 -6 43 -6 43 -2 131 -11 202 -20 60 -9 105 -14 160 -18
62 -6 141 -15 180 -21 17 -2 50 -7 75 -9 75 -9 134 -16 160 -20 14 -2 52 -7
85 -11 33 -4 76 -9 95 -12 19 -2 51 -6 70 -8 19 -2 35 -4 35 -6 0 -1 18 -3 40
-5 22 -1 67 -7 100 -13 33 -6 80 -12 105 -15 25 -3 58 -8 75 -11 16 -3 47 -8
70 -10 53 -5 114 -14 145 -20 14 -3 45 -8 70 -10 25 -2 56 -7 70 -10 14 -3 43
-7 65 -10 22 -3 51 -7 65 -10 14 -3 43 -8 65 -11 75 -10 152 -23 185 -29 38
-8 122 -19 148 -19 12 -1 22 -4 22 -7 0 -3 6 -6 13 -7 27 -1 112 -11 112 -12
0 -1 11 -3 25 -6 14 -2 36 -7 50 -10 14 -4 39 -8 55 -9 17 -1 48 -6 70 -10 22
-5 47 -9 55 -10 8 -1 31 -5 50 -9 42 -7 88 -16 115 -21 11 -2 61 -10 110 -19
50 -9 104 -19 120 -22 17 -2 37 -7 46 -10 10 -2 30 -7 45 -9 77 -11 101 -15
124 -20 14 -4 39 -8 55 -11 17 -2 41 -7 55 -11 14 -3 34 -8 45 -9 11 -2 43 -8
70 -14 125 -26 212 -43 240 -46 16 -2 39 -7 50 -11 11 -4 29 -8 40 -9 11 -1
31 -5 45 -9 27 -6 109 -23 150 -29 14 -3 36 -7 50 -11 14 -3 32 -8 40 -10 8
-2 15 -4 15 -5 0 -1 11 -3 25 -5 14 -1 50 -8 80 -14 30 -7 66 -15 80 -17 14
-3 72 -16 128 -30 57 -13 108 -22 112 -19 5 3 10 1 12 -4 1 -5 21 -11 43 -13
22 -2 46 -7 53 -12 6 -4 16 -5 21 -1 5 3 12 1 16 -5 3 -5 19 -10 36 -10 16 0
29 -5 29 -11 0 -5 4 -7 10 -4 5 3 29 1 52 -6 24 -6 54 -13 68 -16 14 -2 43 -9
65 -15 22 -5 47 -12 55 -13 8 -2 48 -11 89 -19 40 -9 76 -18 80 -21 4 -2 21
-7 37 -9 52 -10 75 -15 94 -21 10 -3 28 -8 39 -10 12 -3 31 -8 44 -11 12 -3
31 -7 42 -9 11 -3 101 -25 200 -50 99 -26 190 -48 202 -51 12 -2 34 -9 49 -14
15 -6 29 -9 31 -6 3 2 20 -2 39 -10 19 -8 34 -11 34 -7 0 4 5 2 11 -4 6 -6 18
-9 27 -6 11 5 13 3 7 -7 -5 -8 -4 -11 3 -6 6 4 62 -7 124 -25 62 -17 129 -35
148 -39 19 -5 53 -14 75 -20 22 -6 47 -12 56 -14 30 -8 104 -28 119 -34 8 -3
24 -7 35 -9 11 -2 27 -6 35 -10 8 -3 22 -7 30 -8 8 -1 40 -9 71 -19 31 -9 65
-19 75 -21 37 -9 169 -46 184 -52 8 -3 24 -8 35 -10 11 -2 31 -7 45 -12 14 -5
61 -19 105 -31 44 -12 87 -24 95 -27 8 -2 16 -4 17 -4 2 0 21 -6 43 -14 22 -8
40 -12 40 -8 0 3 7 -1 17 -8 9 -8 19 -13 22 -12 3 2 20 -1 36 -6 17 -5 64 -19
105 -31 121 -35 302 -90 345 -105 80 -27 199 -62 230 -68 20 -4 35 -37 17 -37
-5 0 -9 -6 -9 -12 0 -7 -14 -56 -31 -108 -55 -168 -75 -270 -87 -448 -2 -40
-8 -78 -11 -84 -4 -7 -2 -8 4 -4 9 5 9 0 3 -17 -6 -14 -8 -27 -5 -30 3 -3 7
-42 10 -88 2 -46 6 -102 9 -124 3 -22 7 -53 9 -70 3 -16 5 -30 6 -30 1 0 3 -9
5 -20 5 -40 25 -114 52 -196 15 -46 27 -86 28 -89 2 -9 35 -82 80 -175 46 -93
147 -253 190 -300 14 -14 25 -29 25 -32 0 -3 10 -14 22 -24 11 -11 19 -19 16
-19 -6 0 138 -145 169 -170 10 -8 41 -34 70 -57 28 -24 55 -43 61 -43 6 0 12
-4 14 -9 3 -9 100 -73 166 -108 116 -63 132 -71 132 -67 0 2 17 -4 38 -15 97
-49 288 -102 457 -127 159 -24 427 -19 555 9 8 2 33 7 55 11 63 13 219 58 231
67 6 5 13 7 15 5 3 -3 30 8 61 23 31 15 54 22 51 16 -4 -5 3 -2 14 8 11 9 24
17 30 17 6 0 50 23 99 50 118 67 128 73 136 85 4 6 8 7 8 3 0 -5 8 0 18 10 11
9 32 26 48 37 83 58 230 196 297 279 18 21 44 54 60 71 15 18 27 38 27 44 0 6
4 11 8 11 5 0 18 18 31 40 12 22 27 45 34 52 10 11 109 207 138 273 16 36 68
195 64 195 -2 0 2 18 10 39 7 22 16 56 19 78 3 21 8 49 11 63 11 58 29 245 26
278 -2 14 -2 46 -1 65 2 31 -19 234 -26 260 -3 11 -7 29 -9 40 -5 43 -37 163
-62 232 -13 39 -26 75 -27 82 -1 7 -5 16 -9 19 -19 19 1 32 86 58 50 15 101
31 112 36 11 5 83 27 160 50 77 23 160 48 185 57 25 8 52 16 60 18 8 2 65 17
125 35 61 17 117 33 125 35 8 2 29 9 45 15 17 6 42 13 56 15 15 2 43 11 64 19
20 9 41 14 45 11 5 -3 11 -1 14 4 5 7 26 14 88 27 9 2 56 15 105 30 48 14 113
32 143 40 30 8 87 24 125 36 39 11 84 23 100 25 17 3 37 9 46 14 9 4 19 5 23
2 3 -3 6 -1 6 6 0 7 3 10 8 7 6 -3 187 39 187 44 0 1 7 3 15 5 8 2 69 18 135
35 66 18 127 33 135 34 8 2 35 9 60 15 25 7 53 15 63 17 10 2 27 6 37 9 10 3
27 8 37 10 10 2 110 27 223 55 113 29 213 54 223 56 10 2 27 6 38 9 10 4 29 8
42 9 12 2 29 6 37 9 13 5 71 18 140 33 14 2 63 14 110 26 47 11 94 22 105 24
11 2 49 10 85 19 36 9 72 18 80 20 8 2 17 4 20 5 3 1 9 2 13 1 5 -1 27 4 50
10 23 6 50 13 60 15 10 2 26 5 35 8 17 5 50 12 112 22 19 3 38 8 42 11 8 4 26
8 83 19 17 3 48 9 69 14 22 5 44 7 48 4 4 -3 8 -1 8 4 0 5 6 9 13 9 6 0 26 3
42 7 80 15 132 26 155 31 14 3 36 8 50 10 14 2 43 9 65 14 22 5 54 12 70 14
17 3 41 8 55 11 25 6 57 12 115 22 17 3 83 17 149 30 65 13 122 21 127 18 5
-3 9 -1 9 3 0 5 8 9 18 10 17 1 103 16 162 28 34 7 218 40 365 65 66 11 140
25 165 30 52 11 127 23 153 24 9 0 17 3 17 6 0 3 12 5 28 6 22 1 256 36 324
49 9 2 38 7 65 11 26 3 57 8 68 10 11 3 40 7 65 10 47 6 59 8 152 24 32 6 61
10 65 9 4 -1 10 0 13 1 13 5 79 14 175 25 17 2 44 6 60 9 17 3 53 8 80 11 49
6 73 9 138 21 17 3 52 7 77 9 25 3 59 7 75 9 35 6 79 12 150 20 28 4 66 9 85
12 19 2 53 7 75 9 44 4 136 15 175 20 48 7 165 18 197 19 18 1 33 3 33 7 0 3
10 5 23 5 12 0 49 4 82 8 33 4 78 9 100 11 83 7 161 15 200 20 22 3 67 7 100
10 33 3 80 8 105 11 45 4 81 8 215 20 39 3 88 8 110 10 93 9 263 23 342 28 28
2 56 7 61 10 6 4 13 2 17 -4 4 -6 11 -7 17 -3 7 3 32 8 57 10 25 1 75 5 111 8
123 10 255 18 312 19 32 1 58 3 58 6 0 3 30 5 68 6 37 1 119 4 182 8 123 7
193 11 390 20 120 6 188 9 525 21 165 6 188 14 168 57 -7 16 -68 52 -199 118
-104 52 -191 94 -194 95 -3 0 -12 4 -20 10 -16 10 -192 98 -200 100 -3 0 -16
7 -30 15 -50 27 -545 274 -552 274 -3 1 -10 5 -14 9 -5 4 -28 17 -52 27 -44
20 -62 20 -192 5 -119 -14 -188 -22 -255 -28 -98 -10 -162 -18 -195 -22 -19
-3 -55 -7 -80 -10 -70 -7 -130 -14 -169 -19 -20 -3 -62 -8 -94 -11 -32 -4 -67
-8 -77 -10 -10 -2 -50 -7 -87 -10 -37 -4 -75 -9 -83 -10 -36 -7 -148 -18 -182
-19 -21 -1 -38 -4 -38 -8 0 -4 -10 -8 -22 -8 -28 1 -113 -7 -113 -10 0 -2 -87
-11 -132 -13 -18 -1 -33 -5 -33 -8 0 -3 -10 -5 -22 -5 -20 0 -172 -18 -248
-29 -14 -2 -45 -6 -70 -9 -25 -3 -56 -8 -70 -10 -14 -3 -47 -8 -75 -11 -27 -4
-61 -8 -75 -10 -80 -12 -162 -23 -225 -31 -22 -3 -51 -7 -65 -9 -14 -3 -43 -7
-65 -9 -76 -10 -120 -16 -145 -21 -14 -3 -45 -8 -70 -10 -25 -3 -56 -8 -70
-11 -14 -3 -41 -7 -60 -9 -38 -3 -101 -12 -140 -20 -14 -3 -43 -7 -65 -10 -22
-2 -51 -7 -65 -10 -14 -3 -45 -8 -70 -11 -25 -3 -56 -7 -70 -10 -61 -11 -107
-17 -135 -18 -16 -1 -32 -4 -35 -8 -3 -3 -28 -9 -55 -11 -28 -3 -50 -6 -50 -7
0 -1 -13 -3 -30 -5 -16 -2 -46 -6 -65 -9 -19 -3 -48 -8 -65 -10 -16 -3 -30 -5
-30 -6 0 -1 -16 -3 -35 -6 -19 -2 -60 -9 -90 -14 -30 -5 -70 -12 -87 -15 -18
-3 -48 -7 -65 -10 -18 -3 -60 -10 -93 -16 -33 -6 -71 -12 -85 -14 -14 -2 -25
-4 -25 -5 0 -1 -16 -4 -35 -6 -67 -9 -76 -10 -86 -16 -5 -3 -18 -4 -28 -2 -11
1 -27 -1 -35 -5 -9 -5 -36 -11 -61 -14 -25 -3 -56 -8 -70 -11 -14 -4 -41 -8
-60 -10 -19 -3 -35 -5 -35 -6 0 -2 -23 -7 -70 -14 -22 -3 -62 -11 -90 -16 -27
-5 -61 -12 -75 -14 -14 -2 -45 -9 -70 -14 -25 -6 -63 -13 -85 -16 -22 -4 -49
-9 -59 -12 -10 -4 -33 -7 -50 -8 -17 -2 -40 -5 -51 -9 -11 -3 -36 -8 -55 -11
-19 -3 -46 -8 -60 -11 -14 -3 -36 -8 -50 -10 -38 -7 -284 -56 -295 -59 -5 -2
-28 -6 -50 -10 -22 -4 -71 -14 -110 -23 -92 -20 -126 -26 -147 -27 -10 0 -18
-3 -18 -6 0 -3 -8 -6 -17 -6 -22 -1 -77 -12 -123 -24 -19 -5 -53 -12 -75 -15
-22 -3 -47 -9 -55 -12 -8 -3 -22 -7 -30 -8 -18 -3 -66 -13 -97 -20 -13 -3 -31
-7 -42 -9 -10 -2 -35 -9 -54 -14 -20 -6 -38 -8 -41 -5 -3 3 -13 0 -22 -8 -10
-8 -19 -12 -21 -10 -3 2 -55 -6 -83 -14 -16 -4 -127 -28 -140 -30 -8 -1 -22
-5 -30 -8 -16 -6 -60 -16 -100 -24 -14 -2 -68 -15 -121 -29 -53 -14 -105 -26
-115 -29 -11 -2 -50 -11 -89 -20 -38 -9 -77 -18 -85 -20 -8 -2 -68 -18 -134
-34 -65 -17 -128 -33 -140 -35 -11 -3 -37 -10 -56 -16 -19 -6 -48 -14 -65 -17
-16 -3 -38 -9 -47 -14 -10 -5 -18 -7 -18 -5 0 3 -11 1 -25 -4 -14 -5 -36 -12
-48 -14 -34 -7 -55 -13 -157 -42 -52 -14 -102 -28 -110 -30 -18 -5 -253 -72
-260 -75 -3 -1 -9 -2 -15 -3 -5 -1 -17 -5 -25 -8 -11 -5 -188 -57 -275 -82 -5
-1 -50 -15 -100 -31 -96 -30 -110 -34 -137 -37 -10 -1 -18 -5 -18 -8 0 -3 -21
-12 -47 -19 -49 -14 -365 -117 -393 -128 -8 -3 -19 -7 -25 -9 -30 -9 -223 -75
-240 -83 -42 -19 -150 -56 -157 -53 -5 1 -8 -3 -8 -10 0 -6 -3 -9 -6 -5 -4 3
-19 0 -35 -9 -16 -8 -29 -12 -29 -10 0 5 -61 -18 -156 -59 -24 -10 -42 -11
-75 -3 -24 5 -51 11 -59 13 -8 2 -36 8 -61 14 -25 6 -61 12 -80 15 -19 2 -41
7 -49 10 -15 5 -72 15 -120 22 -35 4 -80 12 -110 18 -24 6 -75 12 -167 21 -23
2 -63 7 -90 10 -69 8 -172 15 -303 20 -63 2 -117 5 -120 5 -13 2 -197 -1 -295
-5 -133 -5 -302 -19 -385 -31 -19 -3 -53 -7 -75 -10 -45 -4 -105 -13 -150 -20
-16 -3 -41 -7 -55 -9 -26 -4 -68 -12 -110 -20 -14 -3 -38 -8 -54 -11 -15 -2
-58 -12 -95 -20 -108 -26 -115 -27 -136 -27 -17 1 -169 55 -260 93 -25 10 -58
23 -67 25 -5 2 -10 4 -13 5 -3 1 -9 4 -15 5 -5 1 -11 3 -12 5 -2 1 -10 3 -18
5 -8 2 -73 25 -145 50 -71 26 -138 48 -148 50 -9 2 -23 7 -30 12 -6 4 -17 8
-24 9 -17 3 -144 44 -168 54 -24 11 -143 51 -165 55 -8 2 -27 8 -43 14 -15 6
-38 13 -50 16 -12 2 -87 25 -167 51 -80 25 -152 47 -160 49 -8 2 -17 4 -20 5
-3 1 -9 2 -14 1 -4 -1 -13 2 -20 7 -11 9 -45 19 -96 29 -13 2 -29 8 -35 12 -5
5 -23 11 -40 14 -16 2 -67 16 -113 30 -45 14 -84 25 -85 25 -1 0 -22 6 -47 13
-25 7 -48 13 -52 15 -5 1 -9 2 -10 3 -2 2 -13 4 -26 7 -13 2 -62 15 -110 28
-94 27 -358 96 -382 101 -8 2 -15 4 -15 5 0 1 -7 3 -15 5 -8 2 -44 11 -80 20
-36 8 -74 18 -85 20 -97 21 -122 27 -135 33 -8 3 -22 6 -30 8 -8 1 -53 11
-100 23 -47 13 -92 24 -100 26 -8 2 -55 13 -105 24 -104 25 -108 26 -197 46
-38 8 -98 22 -135 30 -38 8 -77 17 -88 19 -11 3 -49 11 -85 20 -36 8 -81 18
-100 21 -19 4 -39 8 -45 9 -5 2 -28 7 -50 11 -55 12 -55 12 -57 15 -2 1 -12 3
-23 5 -45 7 -81 14 -102 20 -38 9 -64 14 -143 30 -41 8 -120 24 -175 35 -107
23 -109 23 -230 46 -88 17 -98 19 -170 34 -27 6 -61 12 -75 13 -14 1 -31 6
-37 10 -7 5 -13 6 -13 4 0 -2 -21 0 -47 5 -27 5 -61 12 -78 14 -16 3 -73 14
-126 25 -53 10 -112 21 -130 23 -19 3 -34 5 -34 6 0 1 -11 3 -25 6 -14 2 -54
9 -90 16 -36 7 -72 13 -80 13 -8 1 -28 4 -45 8 -29 6 -45 9 -129 22 -21 4 -48
9 -60 12 -11 2 -32 6 -46 7 -14 2 -38 6 -55 9 -16 4 -44 9 -61 12 -17 3 -87
14 -155 25 -68 12 -137 23 -154 26 -16 2 -41 6 -55 9 -14 2 -43 7 -65 10 -22
3 -51 7 -65 10 -25 5 -44 8 -130 20 -25 3 -52 9 -60 12 -8 3 -33 7 -56 9 -22
2 -56 6 -75 10 -19 3 -47 8 -64 10 -16 2 -115 16 -220 33 -104 16 -210 32
-235 35 -25 2 -45 5 -45 6 0 3 -92 16 -185 26 -46 5 -85 11 -85 14 0 2 -49 8
-105 14 -25 2 -56 7 -70 10 -14 3 -45 7 -70 10 -25 3 -54 7 -65 9 -11 3 -49 8
-85 12 -36 4 -74 9 -85 11 -11 2 -40 6 -65 9 -71 8 -112 14 -150 20 -49 7
-109 15 -150 20 -19 2 -53 6 -75 9 -22 3 -60 8 -85 11 -98 10 -146 16 -170 22
-14 3 -41 7 -60 8 -59 5 -144 15 -168 19 -13 3 -53 8 -90 11 -37 3 -74 8 -82
10 -8 2 -42 6 -75 10 -33 3 -71 7 -85 10 -14 2 -52 7 -85 10 -33 3 -75 8 -93
11 -18 3 -54 7 -80 9 -26 3 -67 7 -92 11 -25 3 -64 6 -87 7 -24 1 -43 4 -43 7
0 3 -17 5 -37 5 -21 -1 -42 1 -46 3 -5 2 -30 6 -57 7 -26 2 -67 7 -91 11 -24
3 -60 7 -79 8 -19 1 -40 5 -47 9 -6 4 -14 3 -17 -2z"/>
</g>
</svg>
