<?xml version="1.0" standalone="no"?>
<!DOCTYPE svg PUBLIC "-//W3C//DTD SVG 20010904//EN"
 "http://www.w3.org/TR/2001/REC-SVG-20010904/DTD/svg10.dtd">
<svg version="1.0" xmlns="http://www.w3.org/2000/svg"
 width="640.000000pt" height="640.000000pt" viewBox="0 0 640.000000 640.000000"
 preserveAspectRatio="xMidYMid meet">
<metadata>
Created by potrace 1.11, written by Peter Selinger 2001-2013
</metadata>
<g transform="translate(0.000000,640.000000) scale(0.100000,-0.100000)"
fill="#000000" stroke="none">
<path d="M140 4291 c-69 -49 -125 -95 -125 -102 0 -15 4 -15 147 -24 62 -3
129 -8 148 -10 19 -2 80 -6 135 -10 55 -4 114 -9 130 -10 17 -2 64 -6 105 -9
150 -13 176 -15 220 -21 78 -10 113 -14 171 -20 31 -3 65 -7 75 -9 11 -2 50
-7 89 -11 38 -4 72 -8 75 -10 3 -1 30 -6 60 -9 30 -4 66 -8 80 -11 75 -12 379
-66 400 -70 28 -5 32 -6 145 -29 106 -22 417 -100 497 -125 34 -11 122 -38
194 -61 l132 -41 -15 -57 c-10 -38 -14 -87 -11 -144 3 -74 9 -96 38 -153 74
-145 230 -237 392 -231 161 6 325 124 374 269 26 77 25 214 -1 298 -4 13 16
24 102 52 208 68 563 164 723 193 14 3 45 10 70 15 25 6 56 13 70 15 14 2 48
9 75 14 28 5 62 12 78 14 15 3 53 10 85 15 31 6 71 13 87 15 17 2 98 14 180
25 217 31 247 35 360 46 33 3 71 8 85 10 14 2 63 7 110 10 47 4 93 9 103 11
10 1 57 6 105 9 48 4 103 8 122 10 19 2 80 6 135 10 55 4 118 8 140 10 22 2
68 4 103 6 59 2 62 3 62 28 0 23 -17 36 -129 104 -142 84 -156 88 -286 68 -75
-12 -102 -16 -245 -36 -63 -8 -126 -17 -140 -20 -14 -2 -47 -6 -75 -10 -27 -3
-68 -10 -90 -15 -22 -5 -58 -11 -80 -14 -67 -11 -720 -144 -1225 -251 -140
-30 -271 -57 -290 -60 -19 -3 -87 -17 -150 -31 -102 -23 -128 -25 -235 -19
-170 10 -376 7 -475 -6 l-85 -11 -225 55 c-124 31 -277 67 -340 82 -63 14
-142 32 -175 40 -72 17 -429 92 -476 100 -19 3 -79 14 -134 25 -110 21 -108
20 -280 49 -219 36 -469 71 -702 96 -111 12 -135 16 -159 25 -14 6 -49 10 -77
10 -49 -1 -59 -6 -177 -89z"/>
<path d="M2324 2440 c-22 -14 -75 -47 -117 -74 l-78 -49 58 -37 c32 -20 84
-52 116 -70 31 -19 57 -37 57 -40 0 -3 -19 -16 -43 -29 -23 -14 -75 -45 -115
-71 l-73 -46 98 -61 c54 -33 108 -66 120 -72 27 -14 83 -21 83 -11 0 4 -47 38
-105 75 -58 37 -105 68 -105 70 0 1 49 34 110 71 60 38 110 71 110 74 0 3 -12
12 -28 21 -60 36 -177 112 -185 119 -8 7 23 30 156 114 31 19 57 37 57 38 0 2
-17 3 -39 3 -23 0 -53 -9 -77 -25z"/>
<path d="M2834 2462 c-16 -11 -144 -183 -144 -194 0 -8 32 -53 131 -184 5 -6
-21 -49 -61 -104 -47 -63 -66 -96 -58 -101 20 -13 38 2 100 83 l60 79 22 -29
c78 -107 98 -130 116 -135 38 -10 30 11 -39 104 l-68 93 68 91 c38 51 69 98
69 105 0 13 -73 109 -127 166 -31 34 -48 40 -69 26z m89 -112 c39 -53 56 -84
50 -93 -19 -32 -107 -147 -112 -147 -3 1 -32 36 -64 80 l-58 79 58 80 c32 44
60 80 63 80 3 0 31 -35 63 -79z"/>
<path d="M3298 2462 c-10 -2 -18 -7 -19 -10 0 -4 -1 -130 -2 -281 -2 -222 1
-277 12 -288 25 -26 34 4 35 117 l1 110 113 89 112 88 -82 64 c-46 35 -85 66
-88 69 -16 19 -68 46 -82 42z m95 -109 c33 -27 65 -52 71 -56 11 -7 -53 -72
-115 -117 l-25 -19 -1 120 c-1 65 1 119 4 119 2 0 32 -21 66 -47z"/>
<path d="M3789 2455 c0 -17 -1 -497 0 -541 1 -37 3 -41 24 -37 l22 4 -2 267
c-1 147 -2 278 -2 292 -1 19 -6 26 -21 26 -11 0 -20 -5 -21 -11z"/>
<path d="M4099 2462 l-27 -3 0 -290 c-1 -245 1 -289 14 -289 8 0 17 -1 22 -2
4 -2 8 82 8 185 1 103 4 190 7 193 3 3 25 -15 50 -40 30 -32 52 -46 71 -46 14
0 26 2 26 4 0 2 -34 38 -75 79 -41 42 -75 81 -76 87 -1 5 -1 19 -1 30 0 11 0
25 1 32 1 7 25 -11 54 -39 46 -45 76 -58 93 -41 2 2 -29 36 -69 74 -58 56 -77
69 -98 66z"/>
</g>
</svg>
