<?xml version="1.0" encoding="utf-8"?>
<!-- Generator: Adobe Illustrator 16.0.4, SVG Export Plug-In . SVG Version: 6.00 Build 0)  -->
<!DOCTYPE svg PUBLIC "-//W3C//DTD SVG 1.1//EN" "http://www.w3.org/Graphics/SVG/1.1/DTD/svg11.dtd">
<svg version="1.1" id="Layer_1" xmlns="http://www.w3.org/2000/svg" xmlns:xlink="http://www.w3.org/1999/xlink" x="0px" y="0px"
	 width="320px" height="120px" viewBox="0 0 320 120" enable-background="new 0 0 320 120" xml:space="preserve">
<g>
	<g>
		<path fill="#FFFFFF" d="M4.76,53.825c0-17.182,0-34.364,0-51.546c103.742,0,207.483,0,311.225,0c0,16.858,0,33.716,0,50.574
			c-3.663-1.974-7.248-4.117-11.021-5.851c-1.951-0.897-4.368-1.812-6.35-1.457c-28.188,5.042-56.352,10.232-84.493,15.53
			c-18.014,3.392-35.724,8.795-54.425,7.211c-6.622-0.561-13.489,0.549-19.929-0.714c-24.362-4.775-48.529-10.55-72.9-15.274
			c-15.138-2.934-30.501-4.727-45.794-6.804c-1.672-0.227-3.689,0.793-5.3,1.683C12.022,49.248,8.421,51.592,4.76,53.825z
			 M150.291,46.294c0.333-0.285,0.668-0.571,1.002-0.857c0-0.299,0.13-0.741-0.019-0.875c-5.824-5.289-6.935-10.596-0.48-16.35
			c0.564-0.502,0.105-3.073-0.682-3.995c-2.212-2.589-4.824-4.843-7.379-7.115c-0.126-0.113-1.283,0.779-1.838,1.326
			c-6.485,6.395-6.586,7.823-1.151,15.046c0.652,0.866,1.281,1.751,1.954,2.672c-2.309,3.184-4.434,6.115-6.56,9.045
			c0.428,0.387,0.856,0.773,1.284,1.16c2.316-2.692,4.632-5.384,6.991-8.125C145.852,41.087,148.071,43.691,150.291,46.294z
			 M177.058,25.669c-4.338-3.208-8.378-6.198-12.874-9.525c0,10.83,0,20.18,0,29.531c0.427,0.012,0.854,0.024,1.281,0.037
			c0.462-3.959-0.15-8.538,1.679-11.708C169.077,30.653,173.336,28.646,177.058,25.669z M122.158,17.841
			c-0.328-0.531-0.656-1.063-0.984-1.595c-4.34,2.559-8.68,5.118-13.544,7.986c4.151,2.615,7.503,4.726,11.304,7.12
			c-3.841,2.496-7.279,4.729-11.4,7.406c4.971,2.737,9.367,5.158,13.764,7.578c0.271-0.473,0.542-0.946,0.814-1.418
			c-3.146-2.026-6.292-4.052-9.816-6.322c3.83-2.534,7.119-4.709,10.872-7.191c-3.843-2.502-7.16-4.662-10.867-7.075
			C115.866,21.983,119.012,19.912,122.158,17.841z M202.598,45.539c0.6,0.076,1.2,0.152,1.8,0.229c0-6.016,0-12.032,0-18.521
			c2.782,1.969,4.657,3.296,6.532,4.622c0.154-0.264,0.308-0.529,0.462-0.794c-2.471-3.142-4.94-6.284-7.41-9.426
			c0.39-0.275,0.78-0.549,1.171-0.824c1.953,1.325,3.906,2.651,5.86,3.976c0.309-0.424,0.616-0.848,0.925-1.272
			c-2.75-2.413-5.499-4.825-8.25-7.238c-0.362,0.368-0.727,0.735-1.09,1.103C202.598,26.774,202.598,36.157,202.598,45.539z
			 M188.897,45.603c0.354-0.005,0.709-0.009,1.062-0.014c0-9.435,0-18.869,0-28.304c-0.354,0.01-0.708,0.02-1.062,0.029
			C188.897,26.744,188.897,36.173,188.897,45.603z"/>
		<path fill-rule="evenodd" clip-rule="evenodd" fill="#FFFFFF" d="M315.985,55.771c0,21.373,0,42.746,0,64.155
			c-103.742,0-207.483,0-311.225,0c0-21.409,0-42.782,0-64.155c13.812,0.968,27.648,1.679,41.432,2.958
			c28.804,2.672,57.229,7.523,84.961,15.958c3.622,1.102,7.158,2.49,10.557,3.685c-2.159,9.21-1.781,17.199,5.656,23.13
			c6.079,4.848,12.701,7.462,20.577,3.755c11.853-5.579,14.479-15.12,11.414-27.941c15.311-3.83,30.053-8.06,45.028-11.151
			C254.579,59.931,285.182,56.852,315.985,55.771z"/>
		<path fill-rule="evenodd" clip-rule="evenodd" d="M315.985,55.771c-30.804,1.081-61.406,4.16-91.599,10.393
			c-14.976,3.092-29.718,7.321-45.028,11.151c3.065,12.821,0.438,22.362-11.414,27.941c-7.876,3.707-14.498,1.093-20.577-3.755
			c-7.437-5.931-7.815-13.92-5.656-23.13c-3.399-1.194-6.935-2.583-10.557-3.685C103.421,66.251,74.997,61.4,46.192,58.728
			c-13.784-1.278-27.62-1.99-41.432-2.958c0-0.648,0-1.297,0-1.945c3.661-2.233,7.262-4.578,11.012-6.649
			c1.61-0.889,3.628-1.91,5.3-1.683c15.293,2.078,30.657,3.87,45.794,6.804c24.371,4.724,48.538,10.499,72.9,15.274
			c6.44,1.263,13.307,0.153,19.929,0.714c18.702,1.584,36.412-3.819,54.425-7.211c28.142-5.298,56.305-10.489,84.493-15.53
			c1.981-0.354,4.398,0.56,6.35,1.457c3.773,1.734,7.358,3.877,11.021,5.851C315.985,53.825,315.985,54.798,315.985,55.771z"/>
		<path fill-rule="evenodd" clip-rule="evenodd" d="M150.291,46.294c-2.22-2.603-4.439-5.207-6.877-8.068
			c-2.359,2.741-4.675,5.433-6.991,8.125c-0.428-0.387-0.855-0.773-1.284-1.16c2.125-2.93,4.25-5.861,6.56-9.045
			c-0.673-0.921-1.301-1.806-1.954-2.672c-5.435-7.224-5.334-8.652,1.151-15.046c0.555-0.547,1.711-1.439,1.838-1.326
			c2.555,2.272,5.167,4.526,7.379,7.115c0.788,0.922,1.246,3.493,0.682,3.995c-6.455,5.753-5.344,11.061,0.48,16.35
			c0.148,0.135,0.019,0.577,0.019,0.875C150.959,45.723,150.625,46.009,150.291,46.294z M143.417,34.08
			c6.763-7.889,6.763-7.889-0.131-14.73C135.896,28.217,136.736,25.714,143.417,34.08z"/>
		<path fill-rule="evenodd" clip-rule="evenodd" d="M177.058,25.669c-3.722,2.977-7.98,4.984-9.914,8.335
			c-1.829,3.17-1.217,7.749-1.679,11.708c-0.427-0.012-0.854-0.024-1.281-0.037c0-9.351,0-18.701,0-29.531
			C168.68,19.471,172.72,22.46,177.058,25.669z M166.299,20.465c0,3.949,0,7.086,0,11.025c2.562-2.12,4.573-3.783,6.926-5.729
			C170.888,23.974,168.889,22.445,166.299,20.465z"/>
		<path fill-rule="evenodd" clip-rule="evenodd" d="M122.158,17.841c-3.146,2.071-6.292,4.142-9.858,6.49
			c3.707,2.414,7.024,4.573,10.867,7.075c-3.753,2.482-7.042,4.657-10.872,7.191c3.524,2.27,6.67,4.295,9.816,6.322
			c-0.272,0.472-0.543,0.945-0.814,1.418c-4.396-2.42-8.793-4.841-13.764-7.578c4.121-2.677,7.559-4.911,11.4-7.406
			c-3.801-2.394-7.153-4.505-11.304-7.12c4.864-2.868,9.204-5.427,13.544-7.986C121.502,16.778,121.83,17.31,122.158,17.841z"/>
		<path fill-rule="evenodd" clip-rule="evenodd" d="M202.598,45.539c0-9.382,0-18.764,0-28.146c0.363-0.368,0.728-0.735,1.09-1.103
			c2.751,2.413,5.5,4.825,8.25,7.238c-0.309,0.424-0.616,0.848-0.925,1.272c-1.954-1.325-3.907-2.65-5.86-3.976
			c-0.391,0.275-0.781,0.549-1.171,0.824c2.47,3.142,4.939,6.284,7.41,9.426c-0.154,0.265-0.308,0.53-0.462,0.794
			c-1.875-1.326-3.75-2.653-6.532-4.622c0,6.49,0,12.505,0,18.521C203.798,45.69,203.197,45.615,202.598,45.539z"/>
		<path fill-rule="evenodd" clip-rule="evenodd" d="M188.897,45.603c0-9.43,0-18.859,0-28.289c0.354-0.01,0.709-0.02,1.062-0.029
			c0,9.435,0,18.87,0,28.304C189.606,45.594,189.252,45.598,188.897,45.603z"/>
		<path fill-rule="evenodd" clip-rule="evenodd" fill="#FFFFFF" d="M143.417,34.08c-6.681-8.365-7.521-5.862-0.131-14.73
			C150.18,26.191,150.18,26.191,143.417,34.08z"/>
		<path fill-rule="evenodd" clip-rule="evenodd" fill="#FFFFFF" d="M166.299,20.465c2.59,1.98,4.589,3.509,6.926,5.295
			c-2.353,1.946-4.363,3.61-6.926,5.729C166.299,27.551,166.299,24.414,166.299,20.465z"/>
	</g>
</g>
</svg>
